# xmcd CD database file
#
# Track frame offsets:
#	150
#	14482
#	29274
#	42413
#	57207
#	70660
#	84017
#	97197
#	122621
#	134536
#	145826
#	159445
#	170581
#	184136
#	196398
#	210525
#	223618
#	238292
#	251854
#	262952
#	284357
#
# Disc length: 3944 seconds
#
# Revision: 0
# Processed by: cddbd v1.5.1PL2 Copyright (c) Steve Scherf et al.
# Submitted via: CDex 1.51
#
DISCID=390f6615
DTITLE=Bud Powell - Genius of the Bebop Piano: 1944-1951
DYEAR=1900
DGENRE=Jazz
TTITLE0=Honeysuckle Rose
TTITLE1=Blue Garden Blues
TTITLE2=Reverse The Changes
TTITLE3=Dexter Rides Again
TTITLE4=Jay Bird
TTITLE5=Bebop In Pastel
TTITLE6=Royal Roost
TTITLE7=Webb City
TTITLE8=Indiana
TTITLE9=Bud's Bubble
TTITLE10=Cheryl
TTITLE11=Tempus Fugit
TTITLE12=Celia
TTITLE13=I'll Keep Loving You
TTITLE14=Bouncing With Bud
TTITLE15=Dance Of The Infidels
TTITLE16=I Want To Be Happy
TTITLE17=Hallelujah
TTITLE18=Hallucinations
TTITLE19=Un Poco Loco
TTITLE20=Parisian Thoroughfare
EXTD=
EXTT0=
EXTT1=
EXTT2=
EXTT3=
EXTT4=
EXTT5=
EXTT6=
EXTT7=
EXTT8=
EXTT9=
EXTT10=
EXTT11=
EXTT12=
EXTT13=
EXTT14=
EXTT15=
EXTT16=
EXTT17=
EXTT18=
EXTT19=
EXTT20=
PLAYORDER=
